<svg id="Visa_" data-name="Visa " xmlns="http://www.w3.org/2000/svg" width="66" height="46" viewBox="0 0 66 46">
    <g id="Rectangle_Copy_4" data-name="Rectangle Copy 4" fill="#fff" stroke="#e6e7e8" stroke-miterlimit="10" stroke-width="1">
      <rect width="66" height="46" rx="3" stroke="none"/>
      <rect x="0.5" y="0.5" width="65" height="45" rx="2.5" fill="none"/>
    </g>
    <g id="Visa_Inc._logo" transform="translate(11 16)">
      <path id="polygon9" d="M3.54,13.332H0L2.214,0h3.54Z" transform="translate(15.483 0.412)" fill="#0742a6"/>
      <path id="path11" d="M10.618.568A8.929,8.929,0,0,0,7.443,0c-3.5,0-5.957,1.815-5.972,4.411-.029,1.915,1.762,2.978,3.1,3.617,1.369.652,1.835,1.078,1.835,1.66-.014.893-1.107,1.3-2.126,1.3a7.2,7.2,0,0,1-3.321-.709L.5,10.07,0,13.063a11.027,11.027,0,0,0,3.948.71c3.714,0,6.132-1.787,6.161-4.553.014-1.518-.932-2.681-2.971-3.631-1.238-.61-2-1.021-2-1.645.015-.567.641-1.149,2.039-1.149a6.152,6.152,0,0,1,2.637.51l.32.142L10.618.568Z" transform="translate(21.236 0.17)" fill="#0742a6"/>
      <path id="path13" d="M9.424,13.332S9.1,11.8,9,11.332H4.457l-.742,2H0L5.258,1.106A1.752,1.752,0,0,1,7.108,0H9.846L12.7,13.332Z" transform="translate(31.082 0.412)" fill="#0742a6"/>
      <path id="path15" d="M8.739,0,5.273,9.091,4.894,7.247A10.281,10.281,0,0,0,0,1.659L3.175,13.318H6.918L12.482,0H8.739Z" transform="translate(3.787 0.412)" fill="#0742a6"/>
      <path id="path17" d="M5.753,0H.058L0,.269C4.442,1.376,7.385,4.043,8.593,7.248L7.355,1.121A1.461,1.461,0,0,0,5.753,0Z" transform="translate(0.087 0.412)" fill="#0742a6"/>
    </g>
</svg>
  